<?xml version="1.0" standalone="no"?>
<!DOCTYPE svg PUBLIC "-//W3C//DTD SVG 20010904//EN"
 "http://www.w3.org/TR/2001/REC-SVG-20010904/DTD/svg10.dtd">
<svg version="1.0" xmlns="http://www.w3.org/2000/svg"
 width="1920.000000pt" height="1920.000000pt" viewBox="0 0 1920.000000 1920.000000"
 preserveAspectRatio="xMidYMid meet">
<metadata>
Created by potrace 1.14, written by Peter Selinger 2001-2017
</metadata>
<g transform="translate(0.000000,1920.000000) scale(0.100000,-0.100000)"
fill="#000000" stroke="none">
<path d="M9320 19194 c-640 -37 -1091 -89 -1565 -180 -1665 -322 -3119 -1029
-4425 -2150 -409 -350 -709 -656 -1073 -1092 -1228 -1473 -1957 -3144 -2181
-4997 -91 -753 -97 -1384 -21 -2125 185 -1794 804 -3392 1858 -4795 585 -778
1211 -1398 2007 -1987 1136 -839 2392 -1396 3770 -1672 966 -192 1902 -239
2860 -141 1795 184 3386 802 4805 1865 564 423 1035 863 1489 1390 992 1154
1686 2465 2044 3860 230 894 346 1947 303 2760 -99 1886 -598 3463 -1556 4920
-744 1130 -1664 2047 -2815 2802 -1362 895 -2883 1398 -4600 1523 -205 15
-763 27 -900 19z"/>
</g>
</svg>
